<?xml version="1.0" standalone="no"?><!DOCTYPE svg PUBLIC "-//W3C//DTD SVG 1.1//EN" "http://www.w3.org/Graphics/SVG/1.1/DTD/svg11.dtd"><svg t="1728443717110" class="icon" viewBox="0 0 1024 1024" version="1.1" xmlns="http://www.w3.org/2000/svg" p-id="2286" xmlns:xlink="http://www.w3.org/1999/xlink" width="200" height="200"><path d="M314.257949 511.802956c107.013345 97.707837 211.700314 193.089297 316.387282 288.470757l160.520018 146.561755c23.263771 20.937394 27.916525 44.201164 11.631885 62.812181-18.611017 20.937394-41.874787 18.611017-65.138558-4.652754-162.846395-144.235378-321.040036-290.797134-481.560054-435.032512-9.305508-9.305508-18.611017-16.28464-27.916525-23.263771-20.937394-18.611017-20.937394-48.853919-2.326377-65.138558L602.728706 139.582624c44.201164-41.874787 90.728706-81.423198 134.92987-123.297984 23.263771-20.937394 51.180296-18.611017 65.138558 4.652754 11.631885 18.611017 6.979131 39.54841-13.958262 60.485804C674.846395 186.110166 560.853919 290.797134 444.535065 395.484102c-41.874787 34.895656-83.749575 74.444066-130.277116 116.318854z" p-id="2287" fill="#ffffff"></path></svg>