<?xml version="1.0" standalone="no"?><!DOCTYPE svg PUBLIC "-//W3C//DTD SVG 1.1//EN" "http://www.w3.org/Graphics/SVG/1.1/DTD/svg11.dtd"><svg t="1728443727679" class="icon" viewBox="0 0 1024 1024" version="1.1" xmlns="http://www.w3.org/2000/svg" p-id="3305" xmlns:xlink="http://www.w3.org/1999/xlink" width="200" height="200"><path d="M133.310936 296.552327l757.206115 0c19.781623 0 35.950949-16.169326 35.950949-35.950949 0-19.781623-15.997312-35.950949-35.950949-35.950949L133.310936 224.650428c-19.781623 0-35.950949 16.169326-35.950949 35.950949C97.359987 280.383 113.529313 296.552327 133.310936 296.552327z" fill="#ffffff" p-id="3306"></path><path d="M890.51705 476.135058 133.310936 476.135058c-19.781623 0-35.950949 16.169326-35.950949 35.950949 0 19.781623 16.169326 35.950949 35.950949 35.950949l757.206115 0c19.781623 0 35.950949-16.169326 35.950949-35.950949C926.467999 492.304384 910.298673 476.135058 890.51705 476.135058z" fill="#ffffff" p-id="3307"></path><path d="M890.51705 727.447673 133.310936 727.447673c-19.781623 0-35.950949 15.997312-35.950949 35.950949s16.169326 35.950949 35.950949 35.950949l757.206115 0c19.781623 0 35.950949-15.997312 35.950949-35.950949S910.298673 727.447673 890.51705 727.447673z" fill="#ffffff" p-id="3308"></path></svg>